<?xml version="1.0" encoding="UTF-8"?>
<svg width="34px" height="34px" viewBox="0 0 34 34" version="1.1" xmlns="http://www.w3.org/2000/svg" xmlns:xlink="http://www.w3.org/1999/xlink">
    <!-- Generator: Sketch 51 (57462) - http://www.bohemiancoding.com/sketch -->
    <title>Mic 关闭 Copy@3x</title>
    <desc>Created with Sketch.</desc>
    <defs>
        <path d="M0.0751,0.71875 C-0.1163,0.38333 0.0751,0 0.4579,0 C0.6493,0 0.7929,0.09583 0.9364,0.23958 L13.665,22.28125 C13.8086,22.616667 13.6172,23 13.2344,23 C13.043,23 12.8994,22.904167 12.8037,22.760417 L0.0751,0.71875 Z M12.0859,11.5 C12.0859,12.9375 11.5117,14.23125 10.6025,15.14167 L2.8984,1.77292 C3.8554,0.67083 5.2431,0 6.8222,0 C9.7412,0 12.0859,2.34792 12.0859,5.27083 L12.0859,11.5 Z M6.8222,16.77083 C3.9032,16.77083 1.5585,14.42292 1.5585,11.5 L1.5585,5.27083 L8.1142,16.62708 C7.6835,16.72292 7.2529,16.77083 6.8222,16.77083 Z M13.5215,9.10417 C13.8086,9.10417 14,9.29583 14,9.58333 L14,11.26042 C14,13.46458 13.043,15.42917 11.5596,16.81875 L11.081,16.00417 C12.2773,14.90208 13.043,13.27292 13.043,11.5 L13.043,9.58333 C13.043,9.29583 13.2344,9.10417 13.5215,9.10417 Z M10.5417,22.034483 C10.8167,22.034483 11,22.227586 11,22.517241 C11,22.806897 10.8167,23 10.5417,23 L3.2083,23 C2.9333,23 2.75,22.806897 2.75,22.517241 C2.75,22.227586 2.9333,22.034483 3.2083,22.034483 L6.4167,22.034483 L6.4167,18.65517 C2.8417,18.36552 0,15.22759 0,11.41379 L0,9.48276 C0,9.1931 0.1833,9 0.4583,9 C0.7333,9 0.9167,9.1931 0.9167,9.48276 L0.9167,11.22069 C0.9167,14.6 3.3458,17.54483 6.5542,17.68966 C7.2875,17.73793 7.9292,17.64138 8.5708,17.44828 L9.0292,18.26897 C8.4792,18.46207 7.9292,18.6069 7.3333,18.65517 L7.3333,22.034483 L10.5417,22.034483 Z" id="path-1"></path>
    </defs>
    <g id="Mic-关闭-Copy" stroke="none" stroke-width="1" fill="none" fill-rule="evenodd">
        <g id="Group-45" transform="translate(10.000000, 6.000000)">
            <mask id="mask-2" fill="white">
                <use xlink:href="#path-1"></use>
            </mask>
            <use id="Clip-44" fill="#FFCA28" xlink:href="#path-1"></use>
        </g>
    </g>
</svg>